<svg width="28" height="25" viewBox="0 0 28 25" fill="none" xmlns="http://www.w3.org/2000/svg">
<path opacity="0.3" d="M25.375 5.5H19.25V1.5625C19.25 0.851562 18.6484 0.25 17.9375 0.25H10.0625C9.29688 0.25 8.75 0.851562 8.75 1.5625V5.5H2.625C1.14844 5.5 0 6.70312 0 8.125V22.125C0 23.6016 1.14844 24.75 2.625 24.75H25.375C26.7969 24.75 28 23.6016 28 22.125V8.125C28 6.70312 26.7969 5.5 25.375 5.5ZM10.5 2H17.5V5.5H10.5V2ZM26.25 22.125C26.25 22.6172 25.8125 23 25.375 23H2.625C2.13281 23 1.75 22.6172 1.75 22.125V14.25H10.5V16.4375C10.5 17.2031 11.0469 17.75 11.8125 17.75H16.1875C16.8984 17.75 17.5 17.2031 17.5 16.4375V14.25H26.25V22.125ZM12.25 16V14.25H15.75V16H12.25ZM26.25 12.5H1.75V8.125C1.75 7.6875 2.13281 7.25 2.625 7.25H25.375C25.8125 7.25 26.25 7.6875 26.25 8.125V12.5Z" fill="#555555"/>
</svg>
