<svg width="25" height="29" viewBox="0 0 25 29" fill="none" xmlns="http://www.w3.org/2000/svg">
<path opacity="0.3" d="M10.75 6.35156C10.75 6.02344 10.4219 5.69531 10.0938 5.69531H7.90625C7.52344 5.69531 7.25 6.02344 7.25 6.35156V8.53906C7.25 8.92188 7.52344 9.19531 7.90625 9.19531H10.0938C10.4219 9.19531 10.75 8.92188 10.75 8.53906V6.35156ZM17.0938 5.69531H14.9062C14.5234 5.69531 14.25 6.02344 14.25 6.35156V8.53906C14.25 8.92188 14.5234 9.19531 14.9062 9.19531H17.0938C17.4219 9.19531 17.75 8.92188 17.75 8.53906V6.35156C17.75 6.02344 17.4219 5.69531 17.0938 5.69531ZM10.0938 10.9453H7.90625C7.52344 10.9453 7.25 11.2734 7.25 11.6016V13.7891C7.25 14.1719 7.52344 14.4453 7.90625 14.4453H10.0938C10.4219 14.4453 10.75 14.1719 10.75 13.7891V11.6016C10.75 11.2734 10.4219 10.9453 10.0938 10.9453ZM17.0938 10.9453H14.9062C14.5234 10.9453 14.25 11.2734 14.25 11.6016V13.7891C14.25 14.1719 14.5234 14.4453 14.9062 14.4453H17.0938C17.4219 14.4453 17.75 14.1719 17.75 13.7891V11.6016C17.75 11.2734 17.4219 10.9453 17.0938 10.9453ZM10.0938 16.1953H7.90625C7.52344 16.1953 7.25 16.5234 7.25 16.8516V19.0391C7.25 19.4219 7.52344 19.6953 7.90625 19.6953H10.0938C10.4219 19.6953 10.75 19.4219 10.75 19.0391V16.8516C10.75 16.5234 10.4219 16.1953 10.0938 16.1953ZM17.0938 16.1953H14.9062C14.5234 16.1953 14.25 16.5234 14.25 16.8516V19.0391C14.25 19.4219 14.5234 19.6953 14.9062 19.6953H17.0938C17.4219 19.6953 17.75 19.4219 17.75 19.0391V16.8516C17.75 16.5234 17.4219 16.1953 17.0938 16.1953ZM24.75 27.4062C24.75 27.0781 24.4219 26.75 24.0938 26.75H23V1.8125C23 1.10156 22.3984 0.5 21.6875 0.5H3.3125C2.54688 0.5 2 1.10156 2 1.8125V26.75H0.90625C0.523438 26.75 0.25 27.0781 0.25 27.4062V28.5H24.75V27.4062ZM21.25 26.75H14.25V22.1016C14.25 21.7734 13.9219 21.4453 13.5938 21.4453H11.4062C11.0234 21.4453 10.75 21.7734 10.75 22.1016V26.75H3.75V2.25H21.25V26.75Z" fill="#555555"/>
</svg>
